<?xml version="1.0" encoding="UTF-8" standalone="no"?>
<svg
   xmlns:dc="http://purl.org/dc/elements/1.1/"
   xmlns:cc="http://creativecommons.org/ns#"
   xmlns:rdf="http://www.w3.org/1999/02/22-rdf-syntax-ns#"
   xmlns:svg="http://www.w3.org/2000/svg"
   xmlns="http://www.w3.org/2000/svg"
   xmlns:sodipodi="http://sodipodi.sourceforge.net/DTD/sodipodi-0.dtd"
   xmlns:inkscape="http://www.inkscape.org/namespaces/inkscape"
   version="1.1"
   x="0px"
   y="0px"
   width="100px"
   height="100px"
   viewBox="5.0 -10.0 100.0 135.0"
   enable-background="new 0 0 100 100"
   xml:space="preserve"
   id="svg2"
   inkscape:version="0.91 r13725"
   sodipodi:docname="down_arrow.svg"><metadata
     id="metadata16"><rdf:RDF><cc:Work
         rdf:about=""><dc:format>image/svg+xml</dc:format><dc:type
           rdf:resource="http://purl.org/dc/dcmitype/StillImage" /><dc:title /></cc:Work></rdf:RDF></metadata><defs
     id="defs14" /><sodipodi:namedview
     pagecolor="#ffffff"
     bordercolor="#666666"
     borderopacity="1"
     objecttolerance="10"
     gridtolerance="10"
     guidetolerance="10"
     inkscape:pageopacity="0"
     inkscape:pageshadow="2"
     inkscape:window-width="1366"
     inkscape:window-height="705"
     id="namedview12"
     showgrid="false"
     inkscape:zoom="2.36"
     inkscape:cx="53.191208"
     inkscape:cy="50"
     inkscape:window-x="-8"
     inkscape:window-y="-8"
     inkscape:window-maximized="1"
     inkscape:current-layer="Your_Icon" /><g
     id="Captions" /><g
     id="Your_Icon"><path
       d="M 54.597549,2.8022199 C 25.392425,2.8053299 1.7191521,26.478603 1.7191521,55.679062 c 0,29.205123 23.6717179,52.879948 52.8783969,52.878398 29.200458,0 52.873731,-23.673275 52.875281,-52.879954 C 107.47439,26.475493 83.799562,2.8053299 54.597549,2.8022199 Z M 50.963044,90.12366 c -0.06843,-0.0513 -0.138413,-0.0995 -0.205287,-0.15863 -0.121306,-0.0995 -0.241056,-0.20995 -0.359251,-0.3297 -0.0047,-0.003 -0.0093,-0.009 -0.01244,-0.0124 L 23.96475,63.20468 c -2.325026,-2.325025 -2.325026,-6.088612 0,-8.415193 2.321916,-2.321916 6.088613,-2.321916 8.410529,0 l 16.27207,16.27207 -0.0016,-45.124164 c 0.0016,-3.28614 2.665615,-5.950199 5.9502,-5.950199 3.283029,0 5.947089,2.664059 5.947089,5.950199 l 0,45.125719 16.272071,-16.270515 c 2.32036,-2.325026 6.090168,-2.325026 8.415193,0 2.318805,2.323471 2.318805,6.087058 0,8.408973 L 58.804323,89.62755 c -0.125971,0.12908 -0.248832,0.2395 -0.377914,0.3437 -0.05132,0.0466 -0.108864,0.0902 -0.161741,0.13375 -0.04199,0.0327 -0.0902,0.07 -0.136857,0.0964 -0.985998,0.73405 -2.202165,1.16951 -3.528752,1.17262 -1.331252,-0.003 -2.548975,-0.43857 -3.539638,-1.17262 -0.03421,-0.0233 -0.06376,-0.0529 -0.09642,-0.0778 z"
       id="path6"
       style="opacity:1;fill:#65939f;fill-opacity:1"
       inkscape:connector-curvature="0" /><path
       style="opacity:1;fill:#65939f;fill-opacity:1"
       d="M 45.211865,87.377589 C 34.707051,86.06575 25.041841,80.571225 18.899083,72.419169 13.356401,65.063475 10.889831,57.796716 10.889831,48.823132 c 0,-11.12949 3.56372,-19.753753 11.401295,-27.591328 7.722041,-7.72204 16.523564,-11.4012955 27.274206,-11.4012955 7.001092,0 12.141355,1.2162975 18.109444,4.2850855 9.633178,4.953379 17.375678,14.879034 19.959737,25.587796 1.339153,5.549658 1.262259,12.93064 -0.192957,18.522085 -4.310022,16.560589 -18.589979,28.282889 -35.661895,29.274546 -2.097457,0.121835 -5.052966,0.06674 -6.567796,-0.122432 z M 62.468382,64.387996 C 73.999454,52.88936 74.544026,52.146169 73.416289,49.447117 c -1.029238,-2.463309 -3.899153,-3.502534 -6.304314,-2.282856 -0.509042,0.258141 -3.642695,3.163514 -6.963669,6.456383 l -6.038136,5.987038 -0.0094,-17.3674 c -0.01025,-18.891585 0.05031,-18.395646 -2.39916,-19.648316 -2.065448,-1.05628 -5.109269,-0.07338 -6.029886,1.947154 -0.306225,0.672094 -0.459835,6.690185 -0.459835,18.015359 l 0,17.006131 -6.517388,-6.432847 -6.517388,-6.432848 -1.989783,0 c -1.634262,0 -2.211086,0.221304 -3.228375,1.238592 -1.02531,1.02531 -1.238592,1.589224 -1.238592,3.274818 l 0,2.036226 10.920097,10.920097 10.920097,10.920098 2.090464,0 2.090463,0 10.726922,-10.69675 z"
       id="path4143"
       inkscape:connector-curvature="0"
       transform="matrix(1.35,0,0,1.35,-12.500001,-10)" /><path
       style="opacity:1;fill:#ffffff;fill-opacity:1"
       d="m 48.398271,74.63689 c -1.76162,-0.512784 -22.01084,-20.911654 -22.410618,-22.576242 -0.437532,-1.821785 0.884731,-4.195143 2.656233,-4.767729 2.572709,-0.831552 3.350525,-0.347718 10.04143,6.246194 3.511167,3.460268 6.514345,6.291395 6.673729,6.291395 0.159384,0 0.28979,-7.896185 0.28979,-17.547078 l 0,-17.547079 1.303697,-1.096989 c 1.426386,-1.200224 3.896879,-1.469098 5.088954,-0.553852 1.545657,1.186717 1.636938,2.109184 1.713157,17.31272 0.04131,8.24072 0.160358,16.105815 0.264544,17.477991 l 0.189431,2.494865 6.678379,-6.668594 c 6.088168,-6.079248 6.810096,-6.668594 8.168791,-6.668594 1.957661,0 3.129051,0.666991 3.946043,2.246879 1.314199,2.541381 0.832745,3.220703 -10.141057,14.308749 -8.465133,8.553258 -12.121605,11.75922 -13.066973,11.457004 -0.06575,-0.02102 -0.693737,-0.205356 -1.39553,-0.40964 z"
       id="path4136"
       inkscape:connector-curvature="0"
       transform="matrix(1.35,0,0,1.35,-12.500001,-10)" /><path
       style="opacity:1;fill:#ffffff;fill-opacity:1"
       d="M 47.979343,74.480686 C 46.050624,73.6145 26.338142,53.517849 25.987887,52.060648 c -0.437863,-1.82169 0.884301,-4.195079 2.655999,-4.767729 2.573757,-0.831891 3.349633,-0.348599 10.065068,6.269525 4.909983,4.838834 6.469783,6.152622 6.673729,5.621147 0.146384,-0.381469 0.266152,-8.288154 0.266152,-17.57041 l 0,-16.87683 1.303697,-1.096989 c 2.352997,-1.979917 5.962487,-1.112432 6.50362,1.563044 0.220387,1.089637 0.663476,20.608531 0.665728,29.326525 l 0.0015,5.927237 6.673729,-6.616842 c 3.670551,-3.639263 7.132797,-6.725551 7.693886,-6.858416 1.520313,-0.360013 3.702055,0.735915 4.48705,2.253925 1.341403,2.593991 0.894064,3.228691 -10.117302,14.354691 -8.884367,8.97686 -11.860606,11.54961 -13.278838,11.478635 -0.182274,-0.0091 -0.90344,-0.273487 -1.602593,-0.587475 z"
       id="path4138"
       inkscape:connector-curvature="0"
       transform="matrix(1.35,0,0,1.35,-12.500001,-10)" /><path
       style="opacity:1;fill:#ffffff;fill-opacity:1"
       d="M 47.979343,74.480686 C 46.124025,73.647462 26.291067,53.519451 25.937567,52.110995 c -0.190215,-0.757878 -0.02172,-1.694084 0.495405,-2.752628 0.944042,-1.932429 3.228219,-2.921317 5.102122,-2.208861 0.626574,0.238223 3.910937,3.141234 7.298585,6.451136 l 6.159361,6.018002 0.285992,-2.330508 c 0.157296,-1.28178 0.30485,-9.130296 0.327897,-17.441147 l 0.04191,-15.110638 1.303697,-1.096989 c 0.833329,-0.701201 1.814542,-1.096989 2.719582,-1.096989 4.01884,0 3.990723,-0.131109 4.314496,20.118053 0.150998,9.443546 0.369525,17.170082 0.485615,17.170082 0.116091,0 3.04447,-2.8125 6.507509,-6.25 3.463039,-3.4375 6.75152,-6.402982 7.307737,-6.589961 1.483525,-0.498704 3.86019,0.638447 4.690605,2.244288 1.34206,2.59526 0.895221,3.228622 -10.117302,14.340491 -5.621228,5.671937 -10.735309,10.581894 -11.364625,10.911017 -1.393444,0.728746 -1.88328,0.727958 -3.516806,-0.0057 l 0,2.1e-5 z"
       id="path4140"
       inkscape:connector-curvature="0"
       transform="matrix(1.35,0,0,1.35,-12.500001,-10)" /><path
       style="opacity:1;fill:#ffffff;fill-opacity:1"
       d="M 47.555615,74.285695 C 45.348213,72.903648 26.245533,53.338028 25.948632,52.155081 c -0.162479,-0.64737 -0.0079,-1.745897 0.374461,-2.660998 0.764389,-1.829441 2.967174,-2.986134 4.807243,-2.524306 0.674191,0.169212 3.793495,2.853427 7.517618,6.469042 l 6.365288,6.179825 0.26774,-5.720339 c 0.147256,-3.146186 0.290265,-10.994702 0.317796,-17.441147 l 0.05006,-11.720807 1.303697,-1.096989 c 1.370465,-1.15317 3.586937,-1.457464 5.021977,-0.689454 1.642602,0.879094 1.801558,2.393316 2.085605,19.867524 l 0.275162,16.927584 6.567796,-6.289989 c 3.612288,-3.459494 6.995216,-6.398997 7.517619,-6.532228 2.594313,-0.661643 5.671275,2.474811 5.010534,5.107412 -0.330962,1.318658 -19.97843,21.43284 -21.935076,22.456132 -1.525557,0.797839 -2.418359,0.752377 -3.940534,-0.200648 z"
       id="path4142"
       inkscape:connector-curvature="0"
       transform="matrix(1.35,0,0,1.35,-12.500001,-10)" /></g></svg>