<?xml version="1.0" encoding="UTF-8" standalone="no"?>
<svg
   xmlns:dc="http://purl.org/dc/elements/1.1/"
   xmlns:cc="http://creativecommons.org/ns#"
   xmlns:rdf="http://www.w3.org/1999/02/22-rdf-syntax-ns#"
   xmlns:svg="http://www.w3.org/2000/svg"
   xmlns="http://www.w3.org/2000/svg"
   xmlns:sodipodi="http://sodipodi.sourceforge.net/DTD/sodipodi-0.dtd"
   xmlns:inkscape="http://www.inkscape.org/namespaces/inkscape"
   version="1.1"
   x="0px"
   y="0px"
   width="100px"
   height="100px"
   viewBox="5.0 -10.0 100.0 135.0"
   enable-background="new 0 0 100 100"
   xml:space="preserve"
   id="svg2"
   inkscape:version="0.91 r13725"
   sodipodi:docname="down_arrow.svg"><metadata
     id="metadata16"><rdf:RDF><cc:Work
         rdf:about=""><dc:format>image/svg+xml</dc:format><dc:type
           rdf:resource="http://purl.org/dc/dcmitype/StillImage" /><dc:title /></cc:Work></rdf:RDF></metadata><defs
     id="defs14" /><sodipodi:namedview
     pagecolor="#ffffff"
     bordercolor="#666666"
     borderopacity="1"
     objecttolerance="10"
     gridtolerance="10"
     guidetolerance="10"
     inkscape:pageopacity="0"
     inkscape:pageshadow="2"
     inkscape:window-width="1366"
     inkscape:window-height="705"
     id="namedview12"
     showgrid="false"
     inkscape:zoom="2.36"
     inkscape:cx="-27.330508"
     inkscape:cy="50"
     inkscape:window-x="-8"
     inkscape:window-y="-8"
     inkscape:window-maximized="1"
     inkscape:current-layer="Your_Icon" /><g
     id="Captions" /><g
     id="Your_Icon"><path
       d="M 54.597549,2.8022199 C 25.392425,2.8053299 1.7191521,26.478603 1.7191521,55.679062 c 0,29.205123 23.6717179,52.879948 52.8783969,52.878398 29.200458,0 52.873731,-23.673275 52.875281,-52.879954 C 107.47439,26.475493 83.799562,2.8053299 54.597549,2.8022199 Z M 50.963044,90.12366 c -0.06843,-0.0513 -0.138413,-0.0995 -0.205287,-0.15863 -0.121306,-0.0995 -0.241056,-0.20995 -0.359251,-0.3297 -0.0047,-0.003 -0.0093,-0.009 -0.01244,-0.0124 L 23.96475,63.20468 c -2.325026,-2.325025 -2.325026,-6.088612 0,-8.415193 2.321916,-2.321916 6.088613,-2.321916 8.410529,0 l 16.27207,16.27207 -0.0016,-45.124164 c 0.0016,-3.28614 2.665615,-5.950199 5.9502,-5.950199 3.283029,0 5.947089,2.664059 5.947089,5.950199 l 0,45.125719 16.272071,-16.270515 c 2.32036,-2.325026 6.090168,-2.325026 8.415193,0 2.318805,2.323471 2.318805,6.087058 0,8.408973 L 58.804323,89.62755 c -0.125971,0.12908 -0.248832,0.2395 -0.377914,0.3437 -0.05132,0.0466 -0.108864,0.0902 -0.161741,0.13375 -0.04199,0.0327 -0.0902,0.07 -0.136857,0.0964 -0.985998,0.73405 -2.202165,1.16951 -3.528752,1.17262 -1.331252,-0.003 -2.548975,-0.43857 -3.539638,-1.17262 -0.03421,-0.0233 -0.06376,-0.0529 -0.09642,-0.0778 z"
       id="path6"
       style="opacity:1;fill:#65939f;fill-opacity:1"
       inkscape:connector-curvature="0" /><path
       style="opacity:1;fill:#65939f;fill-opacity:1"
       d="M 45.211865,87.377589 C 34.707051,86.06575 25.041841,80.571225 18.899083,72.419169 13.356401,65.063475 10.889831,57.796716 10.889831,48.823132 c 0,-11.12949 3.56372,-19.753753 11.401295,-27.591328 7.722041,-7.72204 16.523564,-11.4012955 27.274206,-11.4012955 7.001092,0 12.141355,1.2162975 18.109444,4.2850855 9.633178,4.953379 17.375678,14.879034 19.959737,25.587796 1.339153,5.549658 1.262259,12.93064 -0.192957,18.522085 -4.310022,16.560589 -18.589979,28.282889 -35.661895,29.274546 -2.097457,0.121835 -5.052966,0.06674 -6.567796,-0.122432 z M 62.468382,64.387996 C 73.999454,52.88936 74.544026,52.146169 73.416289,49.447117 c -1.029238,-2.463309 -3.899153,-3.502534 -6.304314,-2.282856 -0.509042,0.258141 -3.642695,3.163514 -6.963669,6.456383 l -6.038136,5.987038 -0.0094,-17.3674 c -0.01025,-18.891585 0.05031,-18.395646 -2.39916,-19.648316 -2.065448,-1.05628 -5.109269,-0.07338 -6.029886,1.947154 -0.306225,0.672094 -0.459835,6.690185 -0.459835,18.015359 l 0,17.006131 -6.517388,-6.432847 -6.517388,-6.432848 -1.989783,0 c -1.634262,0 -2.211086,0.221304 -3.228375,1.238592 -1.02531,1.02531 -1.238592,1.589224 -1.238592,3.274818 l 0,2.036226 10.920097,10.920097 10.920097,10.920098 2.090464,0 2.090463,0 10.726922,-10.69675 z"
       id="path4143"
       inkscape:connector-curvature="0"
       transform="matrix(1.35,0,0,1.35,-12.500001,-10)" /></g></svg>